<svg xmlns="http://www.w3.org/2000/svg" width="1900" height="1050" viewBox="0 0 1900 1050"><path fill="#6B7A78" d="M-9.375-13.75h1918.708v1078.917h-1918.708z"/><path fill="#62636C" d="M133.544-15l37.672 73.27-180.216 43.98"/><path fill="#666C70" d="M133.544-15l-142.544 117.25v-116.5"/><path fill="#6C7475" d="M171.216 58.27l14.918 147.251-195.134-103.271"/><path fill="#657574" d="M186.134 205.521l-194.415 32.26-.719-135.531"/><path fill="#6B7A78" d="M186.134 205.521l38.39 189.844-232.805-157.584"/><path fill="#D13333" d="M224.524 395.365m-232.805-157.584"/><path fill="#6F807C" d="M-8.281 237.781l-.261 149.677 233.066 7.907"/><path fill="#778C80" d="M-8.542 387.458l25.484 106.023-26.317.818"/><path fill="#71877E" d="M16.942 493.481l207.582-98.116-233.066-7.907"/><path fill="#778C80" d="M16.942 493.481l85.333 21.944 122.249-120.06"/><path fill="#708480" d="M224.524 395.365l58.254 130.049-180.503-9.989"/><path fill="#809285" d="M16.942 493.481l5.725 227.811 79.608-205.867"/><path fill="#778C80" d="M102.275 515.425l83.35 188.783-162.958 17.084"/><path fill="#71877E" d="M-9.167 713.986l31.834 7.306-5.725-227.811"/><path fill="#778C80" d="M185.625 704.208l126.497 17.192-29.344-195.986"/><path fill="#71877E" d="M282.778 525.414l-97.153 178.794-83.35-188.783"/><path fill="#D13333" d="M268.25 663.5"/><path fill="#809285" d="M-9.167 713.986l31.834 7.306-31.917 128.333"/><path fill="#8E9B87" d="M-9.25 849.625l31.917-128.333 124.183 100.458"/><path fill="#879887" d="M146.85 821.75l38.775-117.542-162.958 17.084"/><path fill="#809285" d="M185.625 704.208l-38.775 117.542 92.829 42.214"/><path fill="#859587" d="M185.625 704.208l54.054 159.756 72.443-142.564"/><path fill="#71877E" d="M312.122 721.4l109.568 87.66-182.011 54.904"/><path fill="#8B9987" d="M239.679 863.964l159.362 122.834 22.649-177.738"/><path fill="#939D88" d="M239.679 863.964l-134.572 97.286 200.643 51.225"/><path fill="#809285" d="M239.679 863.964l66.071 148.511 93.291-25.677"/><path fill="#879887" d="M105.107 961.25l200.643 51.225-22.333 52.692"/><path fill="#9AA089" d="M105.107 961.25l178.31 103.917-216.292-.042"/><path fill="#859587" d="M105.107 961.25l-37.982 103.875-76.625-.25"/><path fill="#9AA089" d="M105.107 961.25l-114.607 103.625.25-215.25"/><path fill="#859587" d="M105.107 961.25l-114.357-111.625 156.1-27.875"/><path fill="#71877E" d="M146.85 821.75l-41.743 139.5 134.572-97.286"/><path fill="#939D88" d="M305.75 1012.475l-22.333 52.692 134.583.208"/><path fill="#9AA089" d="M305.75 1012.475l112.25 52.9-18.959-78.577"/><path fill="#8B9987" d="M595.488 920.74l-196.447 66.058 18.959 78.577"/><path fill="#939D88" d="M595.488 920.74l-177.488 144.635 177.75-.375"/><path fill="#859587" d="M595.488 920.74l.262 144.26 115.643-80.036"/><path fill="#939D88" d="M711.393 984.964l-115.643 80.036h107.875"/><path fill="#809285" d="M711.393 984.964l-7.768 80.036h107.708"/><path fill="#778C80" d="M711.393 984.964l99.94 80.036 50.867-44.55m0 0l-50.867 44.55 137.834-.917"/><path fill="#809285" d="M862.2 1020.45l-150.807-35.486 205.815-112.881"/><path fill="#778C80" d="M917.208 872.083l-55.008 148.367 195.514-7.664"/><path fill="#809285" d="M1057.714 1012.786l-108.547 51.297-86.967-43.633"/><path fill="#71877E" d="M949.167 1064.083l119.583.917-11.036-52.214"/><path fill="#778C80" d="M1057.714 1012.786l11.036 52.214 44.083-.417"/><path fill="#6F807C" d="M1151.719 925.797l-94.005 86.989 55.119 51.797"/><path fill="#657574" d="M1151.719 925.797l-38.886 138.786 62.292.417"/><path fill="#6B7A78" d="M1151.719 925.797l23.406 139.203 112.042-.25"/><path fill="#6F807C" d="M1151.719 925.797l135.448 138.953 7.808-42.025"/><path fill="#5E6F72" d="M1294.975 1022.725l-7.808 42.025 40.583.417"/><path fill="#657574" d="M1294.975 1022.725l32.775 42.442 121.625-131.745m0 0l-121.625 131.745 85.125-.792"/><path fill="#626A6F" d="M1449.375 933.422l-36.5 130.953 93.625.208"/><path fill="#5E6F72" d="M1449.375 933.422l57.125 131.161 146.984-105.395"/><path fill="#626A6F" d="M1653.484 959.188l-146.984 105.395 158.25-.208"/><path fill="#5C616A" d="M1653.484 959.188c0 .75 11.266 105.188 11.266 105.188l101.417-.625"/><path fill="#485965" d="M1908.96 1021.824l.373-82.824-98.079 80.75"/><path fill="#D13333" d="M1653.484 959.188l157.77 60.562"/><path fill="#5E6F72" d="M1653.484 959.188l112.683 104.562 45.087-44"/><path fill="#54636B" d="M1811.254 1019.75l-45.087 44 143.552 1.287m-98.465-45.287l4.817-166.643-162.587 106.081"/><path fill="#62636C" d="M1816.071 853.107l59.054 23.893-63.871 142.75"/><path fill="#54636B" d="M1875.125 877l34.208 62-98.079 80.75"/><path fill="#4C5461" d="M1909 873.875l.333 65.125-34.208-62"/><path fill="#435060" d="M1909.232 720.481l-.232 153.394-33.875 3.125"/><path fill="#4C5461" d="M1909.232 720.481l-93.161 132.626 59.054 23.893"/><path fill="#3B5B66" d="M1909.232 720.481l-148.086-38.539 54.925 171.165"/><path fill="#485965" d="M1816.071 853.107l-54.925-171.165-110.013 135.247"/><path fill="#4D626A" d="M1816.071 853.107l-164.938-35.918 2.351 141.999"/><path fill="#626A6F" d="M1653.484 959.188l-204.109-25.766 201.758-116.233"/><path fill="#54636B" d="M1651.133 817.189l-201.758 116.233 32.931-157.061"/><path fill="#5D696E" d="M1482.306 776.361l-129.029 35.278 96.098 121.783"/><path fill="#5E6F72" d="M1449.375 933.422l-154.4 89.303 58.302-211.086"/><path fill="#657574" d="M1353.277 811.639l-201.558 114.158 143.256 96.928"/><path fill="#567070" d="M1153.611 784.166l199.666 27.473-201.558 114.158"/><path fill="#5C7373" d="M1153.611 784.166l-1.892 141.631-144.4-109.755"/><path fill="#647D77" d="M1007.319 816.042l50.395 196.744 94.005-86.989m-234.511-53.714l90.111-56.041 50.395 196.744"/><path fill="#577573" d="M896.931 671.625l110.388 144.417-90.111 56.041"/><path fill="#5C7975" d="M896.931 671.625l20.277 200.458-222.529-93.19"/><path fill="#71877E" d="M694.679 778.893l222.529 93.19-205.815 112.881"/><path fill="#778C80" d="M711.393 984.964l-16.714-206.071-99.191 141.847"/><path fill="#71877E" d="M595.488 920.74l99.191-141.847-108.829 29.257"/><path fill="#778C80" d="M585.85 808.15l9.638 112.59-173.798-111.68"/><path fill="#71877E" d="M481.527 656.446l-59.837 152.614 164.16-.91"/><path fill="#688279" d="M481.527 656.446l104.323 151.704 16.275-143.337"/><path fill="#678078" d="M602.125 664.813l-16.275 143.337 108.829-29.257"/><path fill="#5C7975" d="M602.125 664.813l92.554 114.08 84.721-150.043"/><path fill="#577573" d="M779.4 628.85l-84.721 150.043 202.252-107.268"/><path fill="#486C6E" d="M779.4 628.85l117.531 42.775-17.243-162"/><path fill="#44696C" d="M879.688 509.625l113.958 113.986-96.715 48.014"/><path fill="#486C6E" d="M879.688 509.625l181.062 60.598-67.104 53.388"/><path fill="#3A626A" d="M1060.75 570.223l-77.751-189.581-103.311 128.983"/><path fill="#325F66" d="M982.999 380.642l-70.905-53.225-32.406 182.208"/><path fill="#3A626A" d="M912.094 327.417l-178.41-2.167 146.004 184.375"/><path fill="#44696C" d="M733.684 325.25l-40.299 256.458 186.303-72.083"/><path fill="#4A6F6F" d="M879.688 509.625l-186.303 72.083 86.015 47.142"/><path fill="#577573" d="M693.385 581.708l-91.26 83.105 177.275-35.963"/><path fill="#5C7975" d="M481.527 656.446l120.598 8.367-24.127-87.646"/><path fill="#577573" d="M577.998 577.167l24.127 87.646 91.26-83.105"/><path fill="#517370" d="M693.385 581.708l-115.387-4.541-47.251-223.087"/><path fill="#486C6E" d="M530.747 354.08l162.638 227.628 40.299-256.458"/><path fill="#44696C" d="M733.684 325.25l-202.937 28.83 94.239-153.825"/><path fill="#3A626A" d="M624.986 200.255s109.198 125.746 108.698 124.996l3.395-63.382"/><path fill="#456069" d="M737.079 261.869l-112.093-61.614 52.523-165.119"/><path fill="#3B5B66" d="M677.509 35.136l59.57 226.733 153.658-55.639"/><path fill="#3B5362" d="M890.737 206.23l-213.228-171.094 78.715-47.636"/><path fill="#394C5E" d="M890.737 206.23l-134.513-218.73 90.095-.556"/><path fill="#D13333" d="M846.319-13.056"/><path fill="#314A5D" d="M846.319-13.056l44.418 219.286 35.971-218.73"/><path fill="#2D455A" d="M926.708-12.5l-35.971 218.73 154.707-83.23"/><path fill="#314A5D" d="M926.708-12.5l118.736 135.5-34.444-138"/><path fill="#2E5161" d="M1045.444 123l-154.707 83.23 154.029 24.348m.678-107.578l-.678 107.578 94.065-105.111"/><path fill="#2C495D" d="M1045.444 123l93.387 2.467-18.498-139.217"/><path fill="#2D455A" d="M1120.333-13.75l-74.889 136.75-34.444-138"/><path fill="#24455A" d="M1120.333-13.75l18.498 139.217 153.773-15.347"/><path fill="#314A5D" d="M1120.333-13.75l172.271 123.87-2.77-123.87"/><path fill="#233F57" d="M1289.834-13.75l170.277.083-167.507 123.787"/><path fill="#223853" d="M1460.111-13.667l19.745 70.485-187.252 53.302m304.618-124.231l-117.366 70.929-19.745-70.485m137.111-.444l51.917 109.412-169.283-38.483"/><path fill="#1A2A44" d="M1597.222-14.111l51.917 109.412 161.305-109.412"/><path fill="#223853" d="M1810.444-14.111l98.889.194-139.398 108.773"/><path fill="#1E2E4C" d="M1769.935 94.856l40.509-108.967-161.305 109.412"/><path fill="#233F57" d="M1769.935 94.856l56.264 122.144 82.69-122.222"/><path fill="#1A2A44" d="M1908.889 94.778l-138.954.078 139.398-108.773"/><path fill="#1E2E4C" d="M1908.889 94.778l-82.69 122.222 82.801 32.445"/><path fill="#24455A" d="M1909 249.445l-98.06 82.841 98.56 39.547"/><path fill="#274F60" d="M1826.199 217l-15.259 115.286 98.06-82.841"/><path fill="#24455A" d="M1826.199 217l-219.431-4.55 204.172 119.836"/><path fill="#2A3F56" d="M1810.94 332.286l98.56 39.547-.611 171.39"/><path fill="#253D54" d="M1810.94 332.286l97.949 210.937-187.181-35.515"/><path fill="#394C5E" d="M1721.708 507.708l187.181 35.515.343 177.258"/><path fill="#435060" d="M1721.708 507.708l187.524 212.773-148.086-38.539"/><path fill="#314A5D" d="M1721.708 507.708l39.438 174.234-111.696 7.203"/><path fill="#485965" d="M1649.45 689.145l1.683 128.044-168.827-40.828m167.144-87.216l-167.144 87.216 7.551-115.218"/><path fill="#325F66" d="M1489.857 661.143c-1-.666-202.607 51.469-202.607 51.469l195.056 63.75"/><path fill="#456069" d="M1353.277 811.639l-66.027-99.028 195.056 63.75"/><path fill="#4F696D" d="M1353.277 811.639l-66.027-99.028-133.639 71.555"/><path fill="#577573" d="M1153.611 784.166l-146.292 31.876-13.673-192.431"/><path fill="#4A6F6F" d="M993.646 623.611l-96.715 48.014s110.056 145.084 110.389 144.417m-13.674-192.431l159.965 160.555 54.778-126.5"/><path fill="#44696C" d="M993.646 623.611l214.743 34.055-147.639-87.443m147.639 87.443l-54.778 126.5 133.639-71.555"/><path fill="#3A626A" d="M1292.296 479.356l-83.907 178.31 78.861 54.945"/><path fill="#2E5964" d="M1292.296 479.356l-5.046 233.255 202.607-51.468"/><path fill="#325F66" d="M1292.296 479.356l197.561 181.787-14.857-94.25"/><path fill="#3B5362" d="M1475 566.893l246.708-59.185-72.258 181.437"/><path fill="#2D455A" d="M1810.94 332.286l-89.232 175.422-43.741-110.708"/><path fill="#274F60" d="M1810.94 332.286l-132.973 64.714-71.199-184.55"/><path fill="#233F57" d="M1606.768 212.45l-119.844 168.594 191.043 15.956"/><path fill="#2C495D" d="M1677.967 397l-202.967 169.893 246.708-59.185"/><path fill="#2E5161" d="M1677.967 397l-191.043-15.956-11.924 185.849"/><path fill="#295462" d="M1475 566.893l11.924-185.849-194.628 98.312"/><path fill="#274F60" d="M1328.456 324.777l-36.16 154.579 194.628-98.312"/><path fill="#295462" d="M1292.296 479.356l-168.769-100.516 204.929-54.063"/><path fill="#2E5964" d="M1292.296 479.356l-136.38 32.561-32.389-133.077"/><path fill="#325F66" d="M1292.296 479.356l-136.38 32.561 52.473 145.749"/><path fill="#3A626A" d="M1060.75 570.223l95.166-58.306 52.473 145.749"/><path fill="#325F66" d="M982.999 380.642l140.528-1.802-62.777 191.383"/><path fill="#2E5964" d="M1060.75 570.223l62.777-191.383 32.389 133.077"/><path fill="#3A626A" d="M737.079 261.869l175.015 65.548-178.41-2.167"/><path fill="#395E66" d="M737.079 261.869l153.658-55.639 21.357 121.187"/><path fill="#3A626A" d="M890.737 206.23l21.357 121.187 70.905 53.225"/><path fill="#2E5964" d="M890.737 206.23l92.262 174.412 61.767-150.064"/><path fill="#3A626A" d="M1044.766 230.578l-61.767 150.064 140.528-1.802"/><path fill="#295462" d="M1044.766 230.578l78.761 148.262 66.991-205.89"/><path fill="#274F60" d="M1138.831 125.467l-94.065 105.111 145.752-57.628"/><path fill="#24485C" d="M1138.831 125.467l51.687 47.483 102.086-62.83"/><path fill="#24455A" d="M1292.604 110.12l-102.086 62.83 159.027 30.924"/><path fill="#233F57" d="M1292.604 110.12l56.941 93.754 148.358-22.338m-205.299-71.416l205.299 71.416-18.047-124.718"/><path fill="#223853" d="M1479.856 56.818l18.047 124.718 151.236-86.235m0 0l-151.236 86.235 108.865 30.914"/><path fill="#233F57" d="M1649.139 95.301l-42.371 117.149 163.167-117.594"/><path fill="#223853" d="M1769.935 94.856l-163.167 117.594 219.431 4.55"/><path fill="#2C495D" d="M1497.903 181.536l-10.979 199.508 119.844-168.594"/><path fill="#274F60" d="M1497.903 181.536l-148.358 22.338-21.089 120.903"/><path fill="#24455A" d="M1497.903 181.536l-169.447 143.241 158.468 56.267"/><path fill="#274F60" d="M1328.456 324.777l-137.938-151.827s-66.521 205.1-66.99 205.89"/><path fill="#647D77" d="M481.527 656.446l96.471-79.279-121.065-3.69"/><path fill="#5C7975" d="M456.933 573.477l121.065 3.69-151.788-166.601"/><path fill="#6F807C" d="M426.21 410.566l-201.686-15.201 58.254 130.049"/><path fill="#678078" d="M426.21 410.566l-143.432 114.848 174.155 48.063"/><path fill="#71877E" d="M282.778 525.414l29.344 195.986 144.811-147.923"/><path fill="#7A9183" d="M456.933 573.477l24.594 82.969-169.405 64.954"/><path fill="#577573" d="M426.21 410.566l104.537-56.486 47.251 223.087"/><path fill="#657574" d="M186.134 205.521l38.39 189.844 201.686 15.201"/><path fill="#5C7373" d="M186.134 205.521l240.076 205.045s8.346-196.294 9.136-197.479"/><path fill="#5C7975" d="M435.346 213.088l-9.136 197.478 104.537-56.486"/><path fill="#4F696D" d="M435.346 213.088l95.401 140.992 94.239-153.825"/><path fill="#4D626A" d="M626.715 64.587l-191.369 148.501 189.64-12.833"/><path fill="#54636B" d="M626.715 64.587l-191.369 148.501-62.575-183.576"/><path fill="#585D67" d="M372.771 29.512l253.944 35.075-11.871-78.962"/><path fill="#485965" d="M614.844-14.375l-242.073 43.887 3.211-44.012m250.733 79.087l50.794-29.451-62.665-49.511m62.665 49.511l-50.794 29.451-1.729 135.668"/><path fill="#435060" d="M614.844-14.375l62.665 49.511 78.715-47.636"/><path fill="#585A66" d="M133.544-15l37.672 73.27 83.951-12.245"/><path fill="#62636C" d="M133.544-15l121.623 61.025-5.836-60.823"/><path fill="#5C616A" d="M249.331-14.798l5.836 60.823 120.815-60.525"/><path fill="#585A66" d="M375.982-14.5l-3.211 44.012-117.604 16.513"/><path fill="#5D696E" d="M255.167 46.025l117.604-16.513 62.575 183.576"/><path fill="#657574" d="M255.167 46.025l180.179 167.063-249.212-7.567"/><path fill="#666C70" d="M255.167 46.025l-69.033 159.496-14.918-147.251"/><path fill="#4C5461" d="M1908.96 1021.824l-97.706-2.074 98.465 45.287"/><path fill="#809285" d="M-9.375 494.299l26.317-.818-26.109 220.505"/><path fill="#778C80" d="M481.527 656.446l-169.405 64.954 109.568 87.66"/><path fill="#869687" d="M421.69 809.06l-22.649 177.738 196.447-66.058"/><path fill="#24485C" d="M1190.518 172.95l137.938 151.827 21.089-120.903"/><path fill="#3B5362" d="M1761.146 681.942l-111.696 7.203 1.683 128.044"/><path fill="#2E5964" d="M1475 566.893l174.45 122.252-159.593-28.002"/></svg>